# xmcd
#
# Track frame offsets: 
#        150
#        3797
#        22329
#        40727
#        56840
#        72497
#
# Disc length: 1296 seconds
#
# Revision: 0
# Processed by: cddbd v1.5.2PL0 Copyright (c) Steve Scherf et al.
# Submitted via: ExactAudioCopyFreeDBPlugin 1.0
#
DISCID=4d050e06
DTITLE=Trixie Whitley - Live at Rockwood Music Hall
DYEAR=2011
DGENRE=Blues
TTITLE0=Intro
TTITLE1=Breath you in my Dreams
TTITLE2=Irene
TTITLE3=Oh, the Joy
TTITLE4=Pieces
TTITLE5=Stong Blood
EXTD=
EXTT0=
EXTT1=
EXTT2=
EXTT3=
EXTT4=
EXTT5=
PLAYORDER=
